# xmcd
#
# Track frame offsets: 
#        150
#        15865
#        37278
#        56042
#        73157
#        94470
#        113106
#        130714
#        147983
#        168456
#        184712
#        199439
#        219826
#        236533
#
# Disc length: 3401 seconds
#
# Revision: 1
# Processed by: cddbd v1.5.2PL0 Copyright (c) Steve Scherf et al.
# Submitted via: ExactAudioCopy v1.0b4
#
DISCID=cf0d470e
DTITLE=The Blue Stone Project - Blue Stone
DYEAR=2006
DGENRE=Blues
TTITLE0=Sacred Road
TTITLE1=What I See
TTITLE2=Heart Beat
TTITLE3=Worth of Man
TTITLE4=John Doe
TTITLE5=Edge of the Rez Part 2
TTITLE6=Wild Horse Stomp
TTITLE7=Hold on to Hope and Love
TTITLE8=Moonlight Shadows
TTITLE9=On the Back Roads of Life
TTITLE10=Little East
TTITLE11=Songs of Freedom
TTITLE12=Cross Winds
TTITLE13=Heart Beat with John Densmore
EXTD=
EXTT0=
EXTT1=
EXTT2=
EXTT3=
EXTT4=
EXTT5=
EXTT6=
EXTT7=
EXTT8=
EXTT9=
EXTT10=
EXTT11=
EXTT12=
EXTT13=
PLAYORDER=
